<mxfile host="app.diagrams.net" modified="2024-03-19T16:42:46.334Z" agent="Mozilla/5.0 (Macintosh; Intel Mac OS X 10_15_7) AppleWebKit/605.1.15 (KHTML, like Gecko) Version/17.3 Safari/605.1.15" etag="j1hn2hy50IOFYuVKECDo" version="24.0.7" type="github">
  <diagram name="Page-1" id="e7e014a7-5840-1c2e-5031-d8a46d1fe8dd">
    <mxGraphModel dx="1004" dy="610" grid="1" gridSize="10" guides="1" tooltips="1" connect="1" arrows="1" fold="1" page="1" pageScale="1" pageWidth="1169" pageHeight="826" background="none" math="0" shadow="0">
      <root>
        <mxCell id="0" />
        <mxCell id="1" parent="0" />
        <mxCell id="2" value="Система" style="swimlane;whiteSpace=wrap" parent="1" vertex="1">
          <mxGeometry x="150" y="40" width="294.5" height="760" as="geometry" />
        </mxCell>
        <mxCell id="dJSUfUjSsjQslP4NJfg1-63" value="Выполнить запрос" style="rounded=1;whiteSpace=wrap;html=1;" vertex="1" parent="2">
          <mxGeometry x="80" y="522" width="120" height="60" as="geometry" />
        </mxCell>
        <mxCell id="dJSUfUjSsjQslP4NJfg1-64" value="" style="edgeStyle=elbowEdgeStyle;elbow=horizontal;verticalAlign=bottom;endArrow=open;endSize=8;strokeColor=#FF0000;endFill=1;rounded=0" edge="1" parent="2" target="dJSUfUjSsjQslP4NJfg1-65">
          <mxGeometry x="-554.5" y="-148" as="geometry">
            <mxPoint x="139.5" y="622" as="targetPoint" />
            <mxPoint x="140.5" y="582" as="sourcePoint" />
          </mxGeometry>
        </mxCell>
        <mxCell id="dJSUfUjSsjQslP4NJfg1-65" value="Вернуть результат" style="rounded=1;whiteSpace=wrap;html=1;" vertex="1" parent="2">
          <mxGeometry x="80" y="630" width="120" height="60" as="geometry" />
        </mxCell>
        <mxCell id="3" value="Тестировщик" style="swimlane;whiteSpace=wrap" parent="1" vertex="1">
          <mxGeometry x="444.5" y="40" width="585.5" height="760" as="geometry" />
        </mxCell>
        <mxCell id="13" value="" style="ellipse;shape=startState;fillColor=#000000;strokeColor=#ff0000;strokeWidth=1;" parent="3" vertex="1">
          <mxGeometry x="255.5" y="42" width="30" height="30" as="geometry" />
        </mxCell>
        <mxCell id="14" value="" style="edgeStyle=elbowEdgeStyle;elbow=horizontal;verticalAlign=bottom;endArrow=open;endSize=8;strokeColor=#FF0000;endFill=1;rounded=0" parent="3" source="13" target="dJSUfUjSsjQslP4NJfg1-42" edge="1">
          <mxGeometry x="40" y="20" as="geometry">
            <mxPoint x="271" y="112" as="targetPoint" />
          </mxGeometry>
        </mxCell>
        <mxCell id="dJSUfUjSsjQslP4NJfg1-42" value="Запустить программу" style="rounded=1;whiteSpace=wrap;html=1;" vertex="1" parent="3">
          <mxGeometry x="205.5" y="112" width="130" height="60" as="geometry" />
        </mxCell>
        <mxCell id="34" value="" style="whiteSpace=wrap;strokeColor=#b85450;fillColor=#f8cecc;rotation=90;" parent="3" vertex="1">
          <mxGeometry x="273" y="132" width="5" height="250" as="geometry" />
        </mxCell>
        <mxCell id="dJSUfUjSsjQslP4NJfg1-44" value="" style="endArrow=open;strokeColor=#FF0000;endFill=1;rounded=0;" edge="1" parent="3">
          <mxGeometry relative="1" as="geometry">
            <mxPoint x="270.0799999999999" y="172" as="sourcePoint" />
            <mxPoint x="270.5" y="252" as="targetPoint" />
          </mxGeometry>
        </mxCell>
        <mxCell id="dJSUfUjSsjQslP4NJfg1-45" value="" style="endArrow=open;strokeColor=#FF0000;endFill=1;rounded=0;exitX=0.817;exitY=0.981;exitDx=0;exitDy=0;exitPerimeter=0;" edge="1" parent="3" source="34">
          <mxGeometry relative="1" as="geometry">
            <mxPoint x="154" y="273.00499999999994" as="sourcePoint" />
            <mxPoint x="156.5" y="338.29" as="targetPoint" />
          </mxGeometry>
        </mxCell>
        <mxCell id="dJSUfUjSsjQslP4NJfg1-46" value="Запросить поездки с id = 1" style="rounded=0;whiteSpace=wrap;html=1;" vertex="1" parent="3">
          <mxGeometry x="95.5" y="342" width="120" height="60" as="geometry" />
        </mxCell>
        <mxCell id="dJSUfUjSsjQslP4NJfg1-48" value="" style="endArrow=open;strokeColor=#FF0000;endFill=1;rounded=0;exitX=0.955;exitY=0.656;exitDx=0;exitDy=0;exitPerimeter=0;" edge="1" parent="3" source="34">
          <mxGeometry relative="1" as="geometry">
            <mxPoint x="235.5" y="262" as="sourcePoint" />
            <mxPoint x="237.5" y="422" as="targetPoint" />
          </mxGeometry>
        </mxCell>
        <mxCell id="dJSUfUjSsjQslP4NJfg1-50" value="Запросить поездки с дальностью &amp;gt; 10000" style="rounded=0;whiteSpace=wrap;html=1;" vertex="1" parent="3">
          <mxGeometry x="175.5" y="422" width="120" height="60" as="geometry" />
        </mxCell>
        <mxCell id="dJSUfUjSsjQslP4NJfg1-51" value="" style="endArrow=open;strokeColor=#FF0000;endFill=1;rounded=0;exitX=0.955;exitY=0.341;exitDx=0;exitDy=0;exitPerimeter=0;" edge="1" parent="3" source="34">
          <mxGeometry relative="1" as="geometry">
            <mxPoint x="315.5" y="262" as="sourcePoint" />
            <mxPoint x="317" y="341.29" as="targetPoint" />
          </mxGeometry>
        </mxCell>
        <mxCell id="dJSUfUjSsjQslP4NJfg1-52" value="Запросить поездки с категорией N1" style="rounded=0;whiteSpace=wrap;html=1;" vertex="1" parent="3">
          <mxGeometry x="255.5" y="342" width="120" height="60" as="geometry" />
        </mxCell>
        <mxCell id="dJSUfUjSsjQslP4NJfg1-53" value="" style="endArrow=open;strokeColor=#FF0000;endFill=1;rounded=0;exitX=0.955;exitY=0.638;exitDx=0;exitDy=0;exitPerimeter=0;" edge="1" parent="3">
          <mxGeometry relative="1" as="geometry">
            <mxPoint x="395.5" y="259" as="sourcePoint" />
            <mxPoint x="397" y="422" as="targetPoint" />
          </mxGeometry>
        </mxCell>
        <mxCell id="dJSUfUjSsjQslP4NJfg1-55" value="Запросить поездки с пунктом назначения &quot;Milan&quot;" style="rounded=0;whiteSpace=wrap;html=1;" vertex="1" parent="3">
          <mxGeometry x="335.5" y="422" width="120" height="60" as="geometry" />
        </mxCell>
        <mxCell id="dJSUfUjSsjQslP4NJfg1-56" value="" style="endArrow=open;strokeColor=#FF0000;endFill=1;rounded=0;exitX=1.231;exitY=0.318;exitDx=0;exitDy=0;exitPerimeter=0;" edge="1" parent="3">
          <mxGeometry relative="1" as="geometry">
            <mxPoint x="155" y="402" as="sourcePoint" />
            <mxPoint x="155.5" y="522" as="targetPoint" />
          </mxGeometry>
        </mxCell>
        <mxCell id="dJSUfUjSsjQslP4NJfg1-57" value="" style="endArrow=open;strokeColor=#FF0000;endFill=1;rounded=0;exitX=1.231;exitY=0.318;exitDx=0;exitDy=0;exitPerimeter=0;" edge="1" parent="3">
          <mxGeometry relative="1" as="geometry">
            <mxPoint x="315" y="402" as="sourcePoint" />
            <mxPoint x="316.5" y="522" as="targetPoint" />
          </mxGeometry>
        </mxCell>
        <mxCell id="dJSUfUjSsjQslP4NJfg1-58" value="" style="edgeStyle=elbowEdgeStyle;elbow=horizontal;verticalAlign=bottom;endArrow=open;endSize=8;strokeColor=#FF0000;endFill=1;rounded=0" edge="1" parent="3">
          <mxGeometry x="-404.5" y="-108" as="geometry">
            <mxPoint x="235" y="522" as="targetPoint" />
            <mxPoint x="236" y="482" as="sourcePoint" />
          </mxGeometry>
        </mxCell>
        <mxCell id="dJSUfUjSsjQslP4NJfg1-59" value="" style="edgeStyle=elbowEdgeStyle;elbow=horizontal;verticalAlign=bottom;endArrow=open;endSize=8;strokeColor=#FF0000;endFill=1;rounded=0" edge="1" parent="3">
          <mxGeometry x="-404.5" y="-108" as="geometry">
            <mxPoint x="395" y="522" as="targetPoint" />
            <mxPoint x="396" y="482" as="sourcePoint" />
          </mxGeometry>
        </mxCell>
        <mxCell id="dJSUfUjSsjQslP4NJfg1-60" value="" style="whiteSpace=wrap;strokeColor=#b85450;fillColor=#f8cecc;rotation=90;" vertex="1" parent="3">
          <mxGeometry x="273" y="402" width="5" height="250" as="geometry" />
        </mxCell>
        <mxCell id="dJSUfUjSsjQslP4NJfg1-62" value="" style="edgeStyle=elbowEdgeStyle;elbow=horizontal;verticalAlign=bottom;endArrow=open;endSize=8;strokeColor=#FF0000;endFill=1;rounded=0;exitX=1;exitY=0.5;exitDx=0;exitDy=0;" edge="1" parent="3" source="dJSUfUjSsjQslP4NJfg1-60">
          <mxGeometry x="-849" y="-236" as="geometry">
            <mxPoint x="-94.5" y="552" as="targetPoint" />
            <mxPoint x="278" y="552" as="sourcePoint" />
            <Array as="points">
              <mxPoint x="276" y="572" />
            </Array>
          </mxGeometry>
        </mxCell>
        <mxCell id="dJSUfUjSsjQslP4NJfg1-66" value="" style="edgeStyle=elbowEdgeStyle;elbow=horizontal;verticalAlign=bottom;endArrow=open;endSize=8;strokeColor=#FF0000;endFill=1;rounded=0;exitX=1;exitY=0.5;exitDx=0;exitDy=0;" edge="1" parent="3" source="dJSUfUjSsjQslP4NJfg1-65">
          <mxGeometry x="-999" y="-188" as="geometry">
            <mxPoint x="225.5" y="660" as="targetPoint" />
            <mxPoint x="105.5" y="630" as="sourcePoint" />
            <Array as="points">
              <mxPoint x="106" y="630" />
            </Array>
          </mxGeometry>
        </mxCell>
        <mxCell id="dJSUfUjSsjQslP4NJfg1-67" value="Получить рузультат" style="rounded=1;whiteSpace=wrap;html=1;" vertex="1" parent="3">
          <mxGeometry x="232.75" y="630" width="120" height="60" as="geometry" />
        </mxCell>
      </root>
    </mxGraphModel>
  </diagram>
</mxfile>
